{"title":"50.Guy.Cream.Pie.6.XXX.DVDRiP.XviD-GLAMOUR","uid":9213534,"size":735063557,"categoryP":"porn","categoryS":"movies","magnet":"?xt=urn:btih:3f6f131ea8bce4243ffeb4d948e3b0b63c494122&amp;dn=50.Guy.Cream.Pie.6.XXX.DVDRiP.XviD-GLAMOUR&amp;tr=udp%3A%2F%2Ftracker.openbittorrent.com%3A80&amp;tr=udp%3A%2F%2Fopen.demonii.com%3A1337&amp;tr=udp%3A%2F%2Ftracker.coppersurfer.tk%3A6969&amp;tr=udp%3A%2F%2Fexodus.desync.com%3A6969","seeders":0,"leechers":1,"uploader":null,"files":3,"time":1384827500,"description":" &lt;a href=&quot;http://bayimg.com/oACKMaafi&quot; rel=&quot;nofollow&quot; target=&quot;_NEW&quot;&gt;http://bayimg.com/oACKMaafi&lt;/a&gt;\n\n\nThis is a story about Jenny. She's the kind of girl that believes... if one is good, and two is better, then 50 should be unbelievable! Especially when it come to men. She's a horny, horny girl, a nympho in fact and she's just not satisfied with a simple threesome or silly orgy. She wants a pussy pounding, anal reaming, cum soaked gang bang! Jenny needs as many guys shoving their big, hard cocks in her that she can find. But that's not all. Jenny needs to feel all the guys pumping their hot cum load into her asshole, her cunt and all over her pretty face. Jenny... she knows what she likes and she definitely knows how to do it!\n\nVideo\nFormat: MPEG-4 Visual\nFormat profile: Streaming Video@L1\nFormat settings, BVOP: Yes\nFormat settings, QPel: No\nFormat settings, GMC: No warppoints\nFormat settings, Matrix: Default\nCodec ID: XVID\nCodec ID/Hint: XviD\nDuration: 1h 9mn\nBit rate: 1 258 Kbps\nWidth: 512 pixels\nHeight: 288 pixels\nDisplay aspect ratio: 16/9\nFrame rate: 29.970 fps\nResolution: 24 bits\nColorimetry: 4:2:0\nScan type: Progressive\nBits/(Pixel*Frame): 0.285\nStream size: 630 MiB (90%)\nWriting library: XviD 1.1.2 (UTC 2006-11-01)\n\nAudio\nFormat: MPEG Audio\nFormat version: Version 1\nFormat profile: Layer 3\nCodec ID: 55\nCodec ID/Hint: MP3\nDuration: 1h 9mn\nBit rate mode: Variable\nBit rate: 125 Kbps\nChannel(s): 2 channels\nSampling rate: 48.0 KHz\nResolution: 16 bits\nStream size: 62.6 MiB (9%)\nAlignment: Aligned on interleaves\nInterleave, duration: 24 ms (0.72 video frame)\nInterleave, preload duration: 470 ms\n","torrent":{"xt":"urn:btih:3f6f131ea8bce4243ffeb4d948e3b0b63c494122","amp;dn":"50.Guy.Cream.Pie.6.XXX.DVDRiP.XviD-GLAMOUR","amp;tr":["udp%3A%2F%2Ftracker.openbittorrent.com%3A80","udp%3A%2F%2Fopen.demonii.com%3A1337","udp%3A%2F%2Ftracker.coppersurfer.tk%3A6969","udp%3A%2F%2Fexodus.desync.com%3A6969"],"infoHash":"3f6f131ea8bce4243ffeb4d948e3b0b63c494122","infoHashBuffer":{"type":"Buffer","data":[63,111,19,30,168,188,228,36,63,254,180,217,72,227,176,182,60,73,65,34]},"announce":[],"urlList":[]}}